<mxfile host="app.diagrams.net" modified="2023-04-24T01:36:12.923Z" agent="Mozilla/5.0 (Macintosh; Intel Mac OS X 10_15_7) AppleWebKit/605.1.15 (KHTML, like Gecko) Version/16.3 Safari/605.1.15" etag="JyH27Pn_yZoZIv4GXcUs" version="21.2.1" type="device">
  <diagram name="Page-1" id="CWghV8FqxBcP414u2vS3">
    <mxGraphModel dx="1026" dy="669" grid="1" gridSize="10" guides="1" tooltips="1" connect="1" arrows="1" fold="1" page="1" pageScale="1" pageWidth="850" pageHeight="1100" math="0" shadow="0">
      <root>
        <mxCell id="0" />
        <mxCell id="1" parent="0" />
        <mxCell id="lGgN09VJ7r-bYCbF2dpQ-1" value="Vm&lt;span style=&quot;white-space: pre;&quot;&gt;	&lt;span style=&quot;white-space: pre;&quot;&gt;	&lt;span style=&quot;white-space: pre;&quot;&gt;	&lt;span style=&quot;white-space: pre;&quot;&gt;PWMA&lt;/span&gt;&lt;/span&gt;&lt;/span&gt;&lt;/span&gt;&lt;br&gt;&lt;br&gt;Vcc&lt;span style=&quot;white-space: pre;&quot;&gt;	&lt;span style=&quot;white-space: pre;&quot;&gt;	&lt;span style=&quot;white-space: pre;&quot;&gt;	AI2&lt;/span&gt;&lt;/span&gt;&lt;/span&gt;&lt;br&gt;&lt;br&gt;Gnd&lt;span style=&quot;white-space: pre;&quot;&gt;	&lt;span style=&quot;white-space: pre;&quot;&gt;	&lt;span style=&quot;white-space: pre;&quot;&gt;	AI1&lt;/span&gt;&lt;/span&gt;&lt;/span&gt;&lt;br&gt;&lt;br&gt;A01&lt;span style=&quot;white-space: pre;&quot;&gt;	&lt;span style=&quot;white-space: pre;&quot;&gt;	&lt;span style=&quot;white-space: pre;&quot;&gt;	STBY&lt;/span&gt;&lt;/span&gt;&lt;/span&gt;&lt;br&gt;&lt;br&gt;A02&lt;span style=&quot;white-space: pre;&quot;&gt;	&lt;span style=&quot;white-space: pre;&quot;&gt;	&lt;span style=&quot;white-space: pre;&quot;&gt;	BI1&lt;/span&gt;&lt;/span&gt;&lt;/span&gt;&lt;br&gt;&lt;br&gt;B02&lt;span style=&quot;white-space: pre;&quot;&gt;	&lt;span style=&quot;white-space: pre;&quot;&gt;	&lt;span style=&quot;white-space: pre;&quot;&gt;	BI2&lt;/span&gt;&lt;/span&gt;&lt;/span&gt;&lt;br&gt;&lt;br&gt;B01&lt;span style=&quot;white-space: pre;&quot;&gt;	&lt;span style=&quot;white-space: pre;&quot;&gt;	&lt;span style=&quot;white-space: pre;&quot;&gt;	PWMB&lt;/span&gt;&lt;/span&gt;&lt;/span&gt;&lt;br&gt;&lt;br&gt;Gnd&lt;span style=&quot;white-space: pre;&quot;&gt;	&lt;span style=&quot;white-space: pre;&quot;&gt;	&lt;span style=&quot;white-space: pre;&quot;&gt;	Gnd&lt;/span&gt;&lt;/span&gt;&lt;/span&gt;&lt;br&gt;&lt;div style=&quot;text-align: justify; line-height: 220%;&quot;&gt;&lt;/div&gt;" style="whiteSpace=wrap;html=1;align=left;" vertex="1" parent="1">
          <mxGeometry x="660" y="40" width="120" height="237" as="geometry" />
        </mxCell>
        <mxCell id="lGgN09VJ7r-bYCbF2dpQ-3" value="" style="endArrow=none;html=1;rounded=0;" edge="1" parent="1">
          <mxGeometry width="50" height="50" relative="1" as="geometry">
            <mxPoint x="600" y="63" as="sourcePoint" />
            <mxPoint x="660" y="63" as="targetPoint" />
            <Array as="points" />
          </mxGeometry>
        </mxCell>
        <mxCell id="lGgN09VJ7r-bYCbF2dpQ-4" value="" style="endArrow=none;html=1;rounded=0;" edge="1" parent="1">
          <mxGeometry width="50" height="50" relative="1" as="geometry">
            <mxPoint x="600" y="90" as="sourcePoint" />
            <mxPoint x="660" y="90" as="targetPoint" />
            <Array as="points" />
          </mxGeometry>
        </mxCell>
        <mxCell id="lGgN09VJ7r-bYCbF2dpQ-5" value="" style="endArrow=none;html=1;rounded=0;" edge="1" parent="1">
          <mxGeometry width="50" height="50" relative="1" as="geometry">
            <mxPoint x="600" y="119" as="sourcePoint" />
            <mxPoint x="660" y="119" as="targetPoint" />
            <Array as="points" />
          </mxGeometry>
        </mxCell>
        <mxCell id="lGgN09VJ7r-bYCbF2dpQ-6" value="" style="endArrow=none;html=1;rounded=0;" edge="1" parent="1">
          <mxGeometry width="50" height="50" relative="1" as="geometry">
            <mxPoint x="600" y="146" as="sourcePoint" />
            <mxPoint x="660" y="146" as="targetPoint" />
            <Array as="points" />
          </mxGeometry>
        </mxCell>
        <mxCell id="lGgN09VJ7r-bYCbF2dpQ-8" value="" style="endArrow=none;html=1;rounded=0;" edge="1" parent="1">
          <mxGeometry width="50" height="50" relative="1" as="geometry">
            <mxPoint x="600" y="174" as="sourcePoint" />
            <mxPoint x="660" y="174" as="targetPoint" />
            <Array as="points" />
          </mxGeometry>
        </mxCell>
        <mxCell id="lGgN09VJ7r-bYCbF2dpQ-9" value="" style="endArrow=none;html=1;rounded=0;" edge="1" parent="1">
          <mxGeometry width="50" height="50" relative="1" as="geometry">
            <mxPoint x="600" y="201" as="sourcePoint" />
            <mxPoint x="660" y="201" as="targetPoint" />
            <Array as="points" />
          </mxGeometry>
        </mxCell>
        <mxCell id="lGgN09VJ7r-bYCbF2dpQ-10" value="" style="endArrow=none;html=1;rounded=0;" edge="1" parent="1">
          <mxGeometry width="50" height="50" relative="1" as="geometry">
            <mxPoint x="600" y="230" as="sourcePoint" />
            <mxPoint x="660" y="230" as="targetPoint" />
            <Array as="points" />
          </mxGeometry>
        </mxCell>
        <mxCell id="lGgN09VJ7r-bYCbF2dpQ-11" value="" style="endArrow=none;html=1;rounded=0;" edge="1" parent="1">
          <mxGeometry width="50" height="50" relative="1" as="geometry">
            <mxPoint x="600" y="257" as="sourcePoint" />
            <mxPoint x="660" y="257" as="targetPoint" />
            <Array as="points" />
          </mxGeometry>
        </mxCell>
        <mxCell id="lGgN09VJ7r-bYCbF2dpQ-20" value="" style="endArrow=none;html=1;rounded=0;" edge="1" parent="1">
          <mxGeometry width="50" height="50" relative="1" as="geometry">
            <mxPoint x="780" y="61" as="sourcePoint" />
            <mxPoint x="840" y="61" as="targetPoint" />
            <Array as="points" />
          </mxGeometry>
        </mxCell>
        <mxCell id="lGgN09VJ7r-bYCbF2dpQ-21" value="" style="endArrow=none;html=1;rounded=0;" edge="1" parent="1">
          <mxGeometry width="50" height="50" relative="1" as="geometry">
            <mxPoint x="780" y="88" as="sourcePoint" />
            <mxPoint x="840" y="88" as="targetPoint" />
            <Array as="points" />
          </mxGeometry>
        </mxCell>
        <mxCell id="lGgN09VJ7r-bYCbF2dpQ-22" value="" style="endArrow=none;html=1;rounded=0;" edge="1" parent="1">
          <mxGeometry width="50" height="50" relative="1" as="geometry">
            <mxPoint x="780" y="117" as="sourcePoint" />
            <mxPoint x="840" y="117" as="targetPoint" />
            <Array as="points" />
          </mxGeometry>
        </mxCell>
        <mxCell id="lGgN09VJ7r-bYCbF2dpQ-23" value="" style="endArrow=none;html=1;rounded=0;" edge="1" parent="1">
          <mxGeometry width="50" height="50" relative="1" as="geometry">
            <mxPoint x="780" y="144" as="sourcePoint" />
            <mxPoint x="840" y="144" as="targetPoint" />
            <Array as="points" />
          </mxGeometry>
        </mxCell>
        <mxCell id="lGgN09VJ7r-bYCbF2dpQ-24" value="" style="endArrow=none;html=1;rounded=0;" edge="1" parent="1">
          <mxGeometry width="50" height="50" relative="1" as="geometry">
            <mxPoint x="780" y="172" as="sourcePoint" />
            <mxPoint x="840" y="172" as="targetPoint" />
            <Array as="points" />
          </mxGeometry>
        </mxCell>
        <mxCell id="lGgN09VJ7r-bYCbF2dpQ-25" value="" style="endArrow=none;html=1;rounded=0;" edge="1" parent="1">
          <mxGeometry width="50" height="50" relative="1" as="geometry">
            <mxPoint x="780" y="199" as="sourcePoint" />
            <mxPoint x="840" y="199" as="targetPoint" />
            <Array as="points" />
          </mxGeometry>
        </mxCell>
        <mxCell id="lGgN09VJ7r-bYCbF2dpQ-26" value="" style="endArrow=none;html=1;rounded=0;" edge="1" parent="1">
          <mxGeometry width="50" height="50" relative="1" as="geometry">
            <mxPoint x="780" y="228" as="sourcePoint" />
            <mxPoint x="840" y="228" as="targetPoint" />
            <Array as="points" />
          </mxGeometry>
        </mxCell>
        <mxCell id="lGgN09VJ7r-bYCbF2dpQ-27" value="" style="endArrow=none;html=1;rounded=0;" edge="1" parent="1">
          <mxGeometry width="50" height="50" relative="1" as="geometry">
            <mxPoint x="780" y="255" as="sourcePoint" />
            <mxPoint x="840" y="255" as="targetPoint" />
            <Array as="points" />
          </mxGeometry>
        </mxCell>
        <mxCell id="lGgN09VJ7r-bYCbF2dpQ-53" value="5v1" style="text;html=1;strokeColor=none;fillColor=none;align=center;verticalAlign=middle;whiteSpace=wrap;rounded=0;" vertex="1" parent="1">
          <mxGeometry x="600" y="40" width="60" height="30" as="geometry" />
        </mxCell>
        <mxCell id="lGgN09VJ7r-bYCbF2dpQ-55" value="3.3v" style="text;html=1;strokeColor=none;fillColor=none;align=center;verticalAlign=middle;whiteSpace=wrap;rounded=0;" vertex="1" parent="1">
          <mxGeometry x="600" y="67" width="60" height="30" as="geometry" />
        </mxCell>
        <mxCell id="lGgN09VJ7r-bYCbF2dpQ-56" value="Gnd" style="text;html=1;strokeColor=none;fillColor=none;align=center;verticalAlign=middle;whiteSpace=wrap;rounded=0;" vertex="1" parent="1">
          <mxGeometry x="600" y="97" width="60" height="27" as="geometry" />
        </mxCell>
        <mxCell id="lGgN09VJ7r-bYCbF2dpQ-57" value="m1P" style="text;html=1;strokeColor=none;fillColor=none;align=center;verticalAlign=middle;whiteSpace=wrap;rounded=0;" vertex="1" parent="1">
          <mxGeometry x="600" y="120" width="60" height="30" as="geometry" />
        </mxCell>
        <mxCell id="lGgN09VJ7r-bYCbF2dpQ-59" value="m1N" style="text;html=1;strokeColor=none;fillColor=none;align=center;verticalAlign=middle;whiteSpace=wrap;rounded=0;" vertex="1" parent="1">
          <mxGeometry x="600" y="150" width="60" height="30" as="geometry" />
        </mxCell>
        <mxCell id="lGgN09VJ7r-bYCbF2dpQ-60" value="m2P" style="text;html=1;strokeColor=none;fillColor=none;align=center;verticalAlign=middle;whiteSpace=wrap;rounded=0;" vertex="1" parent="1">
          <mxGeometry x="600" y="180" width="60" height="30" as="geometry" />
        </mxCell>
        <mxCell id="lGgN09VJ7r-bYCbF2dpQ-62" value="m2N" style="text;html=1;strokeColor=none;fillColor=none;align=center;verticalAlign=middle;whiteSpace=wrap;rounded=0;" vertex="1" parent="1">
          <mxGeometry x="600" y="208" width="60" height="30" as="geometry" />
        </mxCell>
        <mxCell id="lGgN09VJ7r-bYCbF2dpQ-64" value="Gnd" style="text;html=1;strokeColor=none;fillColor=none;align=center;verticalAlign=middle;whiteSpace=wrap;rounded=0;" vertex="1" parent="1">
          <mxGeometry x="600" y="230" width="60" height="30" as="geometry" />
        </mxCell>
        <mxCell id="lGgN09VJ7r-bYCbF2dpQ-73" value="p24" style="text;html=1;strokeColor=none;fillColor=none;align=center;verticalAlign=middle;whiteSpace=wrap;rounded=0;" vertex="1" parent="1">
          <mxGeometry x="778" y="41" width="60" height="30" as="geometry" />
        </mxCell>
        <mxCell id="lGgN09VJ7r-bYCbF2dpQ-74" value="p5" style="text;html=1;strokeColor=none;fillColor=none;align=center;verticalAlign=middle;whiteSpace=wrap;rounded=0;" vertex="1" parent="1">
          <mxGeometry x="778" y="67" width="60" height="30" as="geometry" />
        </mxCell>
        <mxCell id="lGgN09VJ7r-bYCbF2dpQ-75" value="p6" style="text;html=1;strokeColor=none;fillColor=none;align=center;verticalAlign=middle;whiteSpace=wrap;rounded=0;" vertex="1" parent="1">
          <mxGeometry x="778" y="96" width="60" height="30" as="geometry" />
        </mxCell>
        <mxCell id="lGgN09VJ7r-bYCbF2dpQ-76" value="3.3v" style="text;html=1;strokeColor=none;fillColor=none;align=center;verticalAlign=middle;whiteSpace=wrap;rounded=0;" vertex="1" parent="1">
          <mxGeometry x="778" y="121" width="60" height="30" as="geometry" />
        </mxCell>
        <mxCell id="lGgN09VJ7r-bYCbF2dpQ-77" value="p7" style="text;html=1;strokeColor=none;fillColor=none;align=center;verticalAlign=middle;whiteSpace=wrap;rounded=0;" vertex="1" parent="1">
          <mxGeometry x="778" y="151" width="60" height="30" as="geometry" />
        </mxCell>
        <mxCell id="lGgN09VJ7r-bYCbF2dpQ-78" value="p8" style="text;html=1;strokeColor=none;fillColor=none;align=center;verticalAlign=middle;whiteSpace=wrap;rounded=0;" vertex="1" parent="1">
          <mxGeometry x="778" y="177" width="60" height="30" as="geometry" />
        </mxCell>
        <mxCell id="lGgN09VJ7r-bYCbF2dpQ-79" value="p23" style="text;html=1;strokeColor=none;fillColor=none;align=center;verticalAlign=middle;whiteSpace=wrap;rounded=0;" vertex="1" parent="1">
          <mxGeometry x="778" y="206" width="60" height="30" as="geometry" />
        </mxCell>
        <mxCell id="lGgN09VJ7r-bYCbF2dpQ-80" value="Gnd" style="text;html=1;strokeColor=none;fillColor=none;align=center;verticalAlign=middle;whiteSpace=wrap;rounded=0;" vertex="1" parent="1">
          <mxGeometry x="778" y="231" width="60" height="30" as="geometry" />
        </mxCell>
        <mxCell id="lGgN09VJ7r-bYCbF2dpQ-81" value="Vm&lt;span style=&quot;white-space: pre;&quot;&gt;	&lt;span style=&quot;white-space: pre;&quot;&gt;	&lt;span style=&quot;white-space: pre;&quot;&gt;	&lt;span style=&quot;white-space: pre;&quot;&gt;PWMA&lt;/span&gt;&lt;/span&gt;&lt;/span&gt;&lt;/span&gt;&lt;br&gt;&lt;br&gt;Vcc&lt;span style=&quot;white-space: pre;&quot;&gt;	&lt;span style=&quot;white-space: pre;&quot;&gt;	&lt;span style=&quot;white-space: pre;&quot;&gt;	AI2&lt;/span&gt;&lt;/span&gt;&lt;/span&gt;&lt;br&gt;&lt;br&gt;Gnd&lt;span style=&quot;white-space: pre;&quot;&gt;	&lt;span style=&quot;white-space: pre;&quot;&gt;	&lt;span style=&quot;white-space: pre;&quot;&gt;	AI1&lt;/span&gt;&lt;/span&gt;&lt;/span&gt;&lt;br&gt;&lt;br&gt;A01&lt;span style=&quot;white-space: pre;&quot;&gt;	&lt;span style=&quot;white-space: pre;&quot;&gt;	&lt;span style=&quot;white-space: pre;&quot;&gt;	STBY&lt;/span&gt;&lt;/span&gt;&lt;/span&gt;&lt;br&gt;&lt;br&gt;A02&lt;span style=&quot;white-space: pre;&quot;&gt;	&lt;span style=&quot;white-space: pre;&quot;&gt;	&lt;span style=&quot;white-space: pre;&quot;&gt;	BI1&lt;/span&gt;&lt;/span&gt;&lt;/span&gt;&lt;br&gt;&lt;br&gt;B02&lt;span style=&quot;white-space: pre;&quot;&gt;	&lt;span style=&quot;white-space: pre;&quot;&gt;	&lt;span style=&quot;white-space: pre;&quot;&gt;	BI2&lt;/span&gt;&lt;/span&gt;&lt;/span&gt;&lt;br&gt;&lt;br&gt;B01&lt;span style=&quot;white-space: pre;&quot;&gt;	&lt;span style=&quot;white-space: pre;&quot;&gt;	&lt;span style=&quot;white-space: pre;&quot;&gt;	PWMB&lt;/span&gt;&lt;/span&gt;&lt;/span&gt;&lt;br&gt;&lt;br&gt;Gnd&lt;span style=&quot;white-space: pre;&quot;&gt;	&lt;span style=&quot;white-space: pre;&quot;&gt;	&lt;span style=&quot;white-space: pre;&quot;&gt;	Gnd&lt;/span&gt;&lt;/span&gt;&lt;/span&gt;&lt;br&gt;&lt;div style=&quot;text-align: justify; line-height: 220%;&quot;&gt;&lt;/div&gt;" style="whiteSpace=wrap;html=1;align=left;" vertex="1" parent="1">
          <mxGeometry x="660" y="310" width="120" height="237" as="geometry" />
        </mxCell>
        <mxCell id="lGgN09VJ7r-bYCbF2dpQ-82" value="" style="endArrow=none;html=1;rounded=0;" edge="1" parent="1">
          <mxGeometry width="50" height="50" relative="1" as="geometry">
            <mxPoint x="600" y="333" as="sourcePoint" />
            <mxPoint x="660" y="333" as="targetPoint" />
            <Array as="points" />
          </mxGeometry>
        </mxCell>
        <mxCell id="lGgN09VJ7r-bYCbF2dpQ-83" value="" style="endArrow=none;html=1;rounded=0;" edge="1" parent="1">
          <mxGeometry width="50" height="50" relative="1" as="geometry">
            <mxPoint x="600" y="360" as="sourcePoint" />
            <mxPoint x="660" y="360" as="targetPoint" />
            <Array as="points" />
          </mxGeometry>
        </mxCell>
        <mxCell id="lGgN09VJ7r-bYCbF2dpQ-84" value="" style="endArrow=none;html=1;rounded=0;" edge="1" parent="1">
          <mxGeometry width="50" height="50" relative="1" as="geometry">
            <mxPoint x="600" y="389" as="sourcePoint" />
            <mxPoint x="660" y="389" as="targetPoint" />
            <Array as="points" />
          </mxGeometry>
        </mxCell>
        <mxCell id="lGgN09VJ7r-bYCbF2dpQ-85" value="" style="endArrow=none;html=1;rounded=0;" edge="1" parent="1">
          <mxGeometry width="50" height="50" relative="1" as="geometry">
            <mxPoint x="600" y="416" as="sourcePoint" />
            <mxPoint x="660" y="416" as="targetPoint" />
            <Array as="points" />
          </mxGeometry>
        </mxCell>
        <mxCell id="lGgN09VJ7r-bYCbF2dpQ-86" value="" style="endArrow=none;html=1;rounded=0;" edge="1" parent="1">
          <mxGeometry width="50" height="50" relative="1" as="geometry">
            <mxPoint x="600" y="444" as="sourcePoint" />
            <mxPoint x="660" y="444" as="targetPoint" />
            <Array as="points" />
          </mxGeometry>
        </mxCell>
        <mxCell id="lGgN09VJ7r-bYCbF2dpQ-87" value="" style="endArrow=none;html=1;rounded=0;" edge="1" parent="1">
          <mxGeometry width="50" height="50" relative="1" as="geometry">
            <mxPoint x="600" y="471" as="sourcePoint" />
            <mxPoint x="660" y="471" as="targetPoint" />
            <Array as="points" />
          </mxGeometry>
        </mxCell>
        <mxCell id="lGgN09VJ7r-bYCbF2dpQ-88" value="" style="endArrow=none;html=1;rounded=0;" edge="1" parent="1">
          <mxGeometry width="50" height="50" relative="1" as="geometry">
            <mxPoint x="600" y="500" as="sourcePoint" />
            <mxPoint x="660" y="500" as="targetPoint" />
            <Array as="points" />
          </mxGeometry>
        </mxCell>
        <mxCell id="lGgN09VJ7r-bYCbF2dpQ-89" value="" style="endArrow=none;html=1;rounded=0;" edge="1" parent="1">
          <mxGeometry width="50" height="50" relative="1" as="geometry">
            <mxPoint x="600" y="527" as="sourcePoint" />
            <mxPoint x="660" y="527" as="targetPoint" />
            <Array as="points" />
          </mxGeometry>
        </mxCell>
        <mxCell id="lGgN09VJ7r-bYCbF2dpQ-90" value="" style="endArrow=none;html=1;rounded=0;" edge="1" parent="1">
          <mxGeometry width="50" height="50" relative="1" as="geometry">
            <mxPoint x="780" y="331" as="sourcePoint" />
            <mxPoint x="840" y="331" as="targetPoint" />
            <Array as="points" />
          </mxGeometry>
        </mxCell>
        <mxCell id="lGgN09VJ7r-bYCbF2dpQ-91" value="" style="endArrow=none;html=1;rounded=0;" edge="1" parent="1">
          <mxGeometry width="50" height="50" relative="1" as="geometry">
            <mxPoint x="780" y="358" as="sourcePoint" />
            <mxPoint x="840" y="358" as="targetPoint" />
            <Array as="points" />
          </mxGeometry>
        </mxCell>
        <mxCell id="lGgN09VJ7r-bYCbF2dpQ-92" value="" style="endArrow=none;html=1;rounded=0;" edge="1" parent="1">
          <mxGeometry width="50" height="50" relative="1" as="geometry">
            <mxPoint x="780" y="387" as="sourcePoint" />
            <mxPoint x="840" y="387" as="targetPoint" />
            <Array as="points" />
          </mxGeometry>
        </mxCell>
        <mxCell id="lGgN09VJ7r-bYCbF2dpQ-93" value="" style="endArrow=none;html=1;rounded=0;" edge="1" parent="1">
          <mxGeometry width="50" height="50" relative="1" as="geometry">
            <mxPoint x="780" y="414" as="sourcePoint" />
            <mxPoint x="840" y="414" as="targetPoint" />
            <Array as="points" />
          </mxGeometry>
        </mxCell>
        <mxCell id="lGgN09VJ7r-bYCbF2dpQ-94" value="" style="endArrow=none;html=1;rounded=0;" edge="1" parent="1">
          <mxGeometry width="50" height="50" relative="1" as="geometry">
            <mxPoint x="780" y="442" as="sourcePoint" />
            <mxPoint x="840" y="442" as="targetPoint" />
            <Array as="points" />
          </mxGeometry>
        </mxCell>
        <mxCell id="lGgN09VJ7r-bYCbF2dpQ-95" value="" style="endArrow=none;html=1;rounded=0;" edge="1" parent="1">
          <mxGeometry width="50" height="50" relative="1" as="geometry">
            <mxPoint x="780" y="469" as="sourcePoint" />
            <mxPoint x="840" y="469" as="targetPoint" />
            <Array as="points" />
          </mxGeometry>
        </mxCell>
        <mxCell id="lGgN09VJ7r-bYCbF2dpQ-96" value="" style="endArrow=none;html=1;rounded=0;" edge="1" parent="1">
          <mxGeometry width="50" height="50" relative="1" as="geometry">
            <mxPoint x="780" y="498" as="sourcePoint" />
            <mxPoint x="840" y="498" as="targetPoint" />
            <Array as="points" />
          </mxGeometry>
        </mxCell>
        <mxCell id="lGgN09VJ7r-bYCbF2dpQ-97" value="" style="endArrow=none;html=1;rounded=0;" edge="1" parent="1">
          <mxGeometry width="50" height="50" relative="1" as="geometry">
            <mxPoint x="780" y="525" as="sourcePoint" />
            <mxPoint x="840" y="525" as="targetPoint" />
            <Array as="points" />
          </mxGeometry>
        </mxCell>
        <mxCell id="lGgN09VJ7r-bYCbF2dpQ-98" value="5v1" style="text;html=1;strokeColor=none;fillColor=none;align=center;verticalAlign=middle;whiteSpace=wrap;rounded=0;" vertex="1" parent="1">
          <mxGeometry x="600" y="310" width="60" height="30" as="geometry" />
        </mxCell>
        <mxCell id="lGgN09VJ7r-bYCbF2dpQ-99" value="3.3v" style="text;html=1;strokeColor=none;fillColor=none;align=center;verticalAlign=middle;whiteSpace=wrap;rounded=0;" vertex="1" parent="1">
          <mxGeometry x="600" y="337" width="60" height="30" as="geometry" />
        </mxCell>
        <mxCell id="lGgN09VJ7r-bYCbF2dpQ-100" value="Gnd" style="text;html=1;strokeColor=none;fillColor=none;align=center;verticalAlign=middle;whiteSpace=wrap;rounded=0;" vertex="1" parent="1">
          <mxGeometry x="600" y="367" width="60" height="27" as="geometry" />
        </mxCell>
        <mxCell id="lGgN09VJ7r-bYCbF2dpQ-101" value="m3P" style="text;html=1;strokeColor=none;fillColor=none;align=center;verticalAlign=middle;whiteSpace=wrap;rounded=0;" vertex="1" parent="1">
          <mxGeometry x="600" y="390" width="60" height="30" as="geometry" />
        </mxCell>
        <mxCell id="lGgN09VJ7r-bYCbF2dpQ-102" value="m3N" style="text;html=1;strokeColor=none;fillColor=none;align=center;verticalAlign=middle;whiteSpace=wrap;rounded=0;" vertex="1" parent="1">
          <mxGeometry x="600" y="420" width="60" height="30" as="geometry" />
        </mxCell>
        <mxCell id="lGgN09VJ7r-bYCbF2dpQ-103" value="m4P" style="text;html=1;strokeColor=none;fillColor=none;align=center;verticalAlign=middle;whiteSpace=wrap;rounded=0;" vertex="1" parent="1">
          <mxGeometry x="600" y="450" width="60" height="30" as="geometry" />
        </mxCell>
        <mxCell id="lGgN09VJ7r-bYCbF2dpQ-104" value="m4N" style="text;html=1;strokeColor=none;fillColor=none;align=center;verticalAlign=middle;whiteSpace=wrap;rounded=0;" vertex="1" parent="1">
          <mxGeometry x="600" y="478" width="60" height="30" as="geometry" />
        </mxCell>
        <mxCell id="lGgN09VJ7r-bYCbF2dpQ-105" value="Gnd" style="text;html=1;strokeColor=none;fillColor=none;align=center;verticalAlign=middle;whiteSpace=wrap;rounded=0;" vertex="1" parent="1">
          <mxGeometry x="600" y="500" width="60" height="30" as="geometry" />
        </mxCell>
        <mxCell id="lGgN09VJ7r-bYCbF2dpQ-106" value="p22" style="text;html=1;strokeColor=none;fillColor=none;align=center;verticalAlign=middle;whiteSpace=wrap;rounded=0;" vertex="1" parent="1">
          <mxGeometry x="778" y="308" width="60" height="30" as="geometry" />
        </mxCell>
        <mxCell id="lGgN09VJ7r-bYCbF2dpQ-107" value="p12" style="text;html=1;strokeColor=none;fillColor=none;align=center;verticalAlign=middle;whiteSpace=wrap;rounded=0;" vertex="1" parent="1">
          <mxGeometry x="778" y="337" width="60" height="30" as="geometry" />
        </mxCell>
        <mxCell id="lGgN09VJ7r-bYCbF2dpQ-108" value="p13" style="text;html=1;strokeColor=none;fillColor=none;align=center;verticalAlign=middle;whiteSpace=wrap;rounded=0;" vertex="1" parent="1">
          <mxGeometry x="778" y="366" width="60" height="30" as="geometry" />
        </mxCell>
        <mxCell id="lGgN09VJ7r-bYCbF2dpQ-109" value="3.3v" style="text;html=1;strokeColor=none;fillColor=none;align=center;verticalAlign=middle;whiteSpace=wrap;rounded=0;" vertex="1" parent="1">
          <mxGeometry x="778" y="391" width="60" height="30" as="geometry" />
        </mxCell>
        <mxCell id="lGgN09VJ7r-bYCbF2dpQ-110" value="p14" style="text;html=1;strokeColor=none;fillColor=none;align=center;verticalAlign=middle;whiteSpace=wrap;rounded=0;" vertex="1" parent="1">
          <mxGeometry x="778" y="421" width="60" height="30" as="geometry" />
        </mxCell>
        <mxCell id="lGgN09VJ7r-bYCbF2dpQ-111" value="p15" style="text;html=1;strokeColor=none;fillColor=none;align=center;verticalAlign=middle;whiteSpace=wrap;rounded=0;" vertex="1" parent="1">
          <mxGeometry x="778" y="447" width="60" height="30" as="geometry" />
        </mxCell>
        <mxCell id="lGgN09VJ7r-bYCbF2dpQ-112" value="p21" style="text;html=1;strokeColor=none;fillColor=none;align=center;verticalAlign=middle;whiteSpace=wrap;rounded=0;" vertex="1" parent="1">
          <mxGeometry x="778" y="476" width="60" height="30" as="geometry" />
        </mxCell>
        <mxCell id="lGgN09VJ7r-bYCbF2dpQ-113" value="Gnd" style="text;html=1;strokeColor=none;fillColor=none;align=center;verticalAlign=middle;whiteSpace=wrap;rounded=0;" vertex="1" parent="1">
          <mxGeometry x="778" y="501" width="60" height="30" as="geometry" />
        </mxCell>
        <mxCell id="lGgN09VJ7r-bYCbF2dpQ-116" value="MOD&lt;span style=&quot;white-space: pre;&quot;&gt;	&lt;span style=&quot;white-space: pre;&quot;&gt;	Vin&lt;/span&gt;&lt;/span&gt;&lt;br&gt;&lt;br&gt;CTS&lt;span style=&quot;white-space: pre;&quot;&gt;	&lt;span style=&quot;white-space: pre;&quot;&gt;	&lt;span style=&quot;white-space: pre;&quot;&gt;	RTS&lt;/span&gt;&lt;/span&gt;&lt;/span&gt;&lt;br&gt;&lt;br&gt;TXO&lt;span style=&quot;white-space: pre;&quot;&gt;	&lt;span style=&quot;white-space: pre;&quot;&gt;	&lt;span style=&quot;white-space: pre;&quot;&gt;	Gnd&lt;/span&gt;&lt;/span&gt;&lt;/span&gt;&lt;br&gt;&lt;br&gt;RXI&lt;span style=&quot;white-space: pre;&quot;&gt;	&lt;span style=&quot;white-space: pre;&quot;&gt;	&lt;span style=&quot;white-space: pre;&quot;&gt;	OFU&lt;/span&gt;&lt;/span&gt;&lt;/span&gt;" style="rounded=0;whiteSpace=wrap;html=1;align=left;" vertex="1" parent="1">
          <mxGeometry x="350" y="41" width="110" height="119" as="geometry" />
        </mxCell>
        <mxCell id="lGgN09VJ7r-bYCbF2dpQ-117" value="HBridge" style="text;html=1;strokeColor=none;fillColor=none;align=center;verticalAlign=middle;whiteSpace=wrap;rounded=0;" vertex="1" parent="1">
          <mxGeometry x="690" y="11" width="60" height="30" as="geometry" />
        </mxCell>
        <mxCell id="lGgN09VJ7r-bYCbF2dpQ-118" value="HBridge" style="text;html=1;strokeColor=none;fillColor=none;align=center;verticalAlign=middle;whiteSpace=wrap;rounded=0;" vertex="1" parent="1">
          <mxGeometry x="690" y="283" width="60" height="30" as="geometry" />
        </mxCell>
        <mxCell id="lGgN09VJ7r-bYCbF2dpQ-120" value="" style="endArrow=none;html=1;rounded=0;exitX=0.008;exitY=0.16;exitDx=0;exitDy=0;exitPerimeter=0;" edge="1" parent="1">
          <mxGeometry width="50" height="50" relative="1" as="geometry">
            <mxPoint x="350" y="86.5" as="sourcePoint" />
            <mxPoint x="289" y="86.5" as="targetPoint" />
          </mxGeometry>
        </mxCell>
        <mxCell id="lGgN09VJ7r-bYCbF2dpQ-121" value="" style="endArrow=none;html=1;rounded=0;exitX=0.008;exitY=0.16;exitDx=0;exitDy=0;exitPerimeter=0;" edge="1" parent="1">
          <mxGeometry width="50" height="50" relative="1" as="geometry">
            <mxPoint x="350" y="116" as="sourcePoint" />
            <mxPoint x="289" y="116" as="targetPoint" />
          </mxGeometry>
        </mxCell>
        <mxCell id="lGgN09VJ7r-bYCbF2dpQ-122" value="" style="endArrow=none;html=1;rounded=0;exitX=0.008;exitY=0.16;exitDx=0;exitDy=0;exitPerimeter=0;" edge="1" parent="1">
          <mxGeometry width="50" height="50" relative="1" as="geometry">
            <mxPoint x="351" y="144" as="sourcePoint" />
            <mxPoint x="290" y="144" as="targetPoint" />
          </mxGeometry>
        </mxCell>
        <mxCell id="lGgN09VJ7r-bYCbF2dpQ-123" value="" style="endArrow=none;html=1;rounded=0;exitX=0.008;exitY=0.16;exitDx=0;exitDy=0;exitPerimeter=0;" edge="1" parent="1">
          <mxGeometry width="50" height="50" relative="1" as="geometry">
            <mxPoint x="522" y="59" as="sourcePoint" />
            <mxPoint x="461" y="59" as="targetPoint" />
          </mxGeometry>
        </mxCell>
        <mxCell id="lGgN09VJ7r-bYCbF2dpQ-125" value="" style="endArrow=none;html=1;rounded=0;exitX=0.008;exitY=0.16;exitDx=0;exitDy=0;exitPerimeter=0;" edge="1" parent="1">
          <mxGeometry width="50" height="50" relative="1" as="geometry">
            <mxPoint x="521" y="115" as="sourcePoint" />
            <mxPoint x="460" y="115" as="targetPoint" />
          </mxGeometry>
        </mxCell>
        <mxCell id="lGgN09VJ7r-bYCbF2dpQ-128" value="Gnd" style="text;html=1;strokeColor=none;fillColor=none;align=center;verticalAlign=middle;whiteSpace=wrap;rounded=0;" vertex="1" parent="1">
          <mxGeometry x="290" y="60" width="60" height="30" as="geometry" />
        </mxCell>
        <mxCell id="lGgN09VJ7r-bYCbF2dpQ-129" value="p10" style="text;html=1;strokeColor=none;fillColor=none;align=center;verticalAlign=middle;whiteSpace=wrap;rounded=0;" vertex="1" parent="1">
          <mxGeometry x="290" y="93" width="60" height="27" as="geometry" />
        </mxCell>
        <mxCell id="lGgN09VJ7r-bYCbF2dpQ-130" value="p9" style="text;html=1;strokeColor=none;fillColor=none;align=center;verticalAlign=middle;whiteSpace=wrap;rounded=0;" vertex="1" parent="1">
          <mxGeometry x="290" y="120" width="60" height="27" as="geometry" />
        </mxCell>
        <mxCell id="lGgN09VJ7r-bYCbF2dpQ-131" value="5v1" style="text;html=1;strokeColor=none;fillColor=none;align=center;verticalAlign=middle;whiteSpace=wrap;rounded=0;" vertex="1" parent="1">
          <mxGeometry x="460" y="36" width="60" height="27" as="geometry" />
        </mxCell>
        <mxCell id="lGgN09VJ7r-bYCbF2dpQ-132" value="Gnd" style="text;html=1;strokeColor=none;fillColor=none;align=center;verticalAlign=middle;whiteSpace=wrap;rounded=0;" vertex="1" parent="1">
          <mxGeometry x="460" y="92" width="60" height="27" as="geometry" />
        </mxCell>
        <mxCell id="lGgN09VJ7r-bYCbF2dpQ-133" value="Bluetooth" style="text;html=1;strokeColor=none;fillColor=none;align=center;verticalAlign=middle;whiteSpace=wrap;rounded=0;" vertex="1" parent="1">
          <mxGeometry x="380" y="11" width="60" height="30" as="geometry" />
        </mxCell>
        <mxCell id="lGgN09VJ7r-bYCbF2dpQ-135" value="Vin&lt;span style=&quot;white-space: pre;&quot;&gt;	&lt;span style=&quot;white-space: pre;&quot;&gt;	&lt;span style=&quot;white-space: pre;&quot;&gt;	SDA&lt;/span&gt;&lt;/span&gt;&lt;/span&gt;&lt;br&gt;&lt;br&gt;Gnd&lt;span style=&quot;white-space: pre;&quot;&gt;	       &lt;span style=&quot;white-space: pre;&quot;&gt;&lt;span style=&quot;white-space: pre;&quot;&gt;	       GPIO&lt;/span&gt;&lt;/span&gt;&lt;/span&gt;&lt;br&gt;&lt;br&gt;SCL&lt;span style=&quot;white-space: pre;&quot;&gt;	&lt;span style=&quot;white-space: pre;&quot;&gt;	   &lt;span style=&quot;white-space: pre;&quot;&gt;XSHUT&lt;/span&gt;&lt;/span&gt;&lt;/span&gt;" style="rounded=0;whiteSpace=wrap;html=1;align=left;" vertex="1" parent="1">
          <mxGeometry x="349.5" y="210" width="110" height="100" as="geometry" />
        </mxCell>
        <mxCell id="lGgN09VJ7r-bYCbF2dpQ-136" value="" style="endArrow=none;html=1;rounded=0;exitX=0.008;exitY=0.16;exitDx=0;exitDy=0;exitPerimeter=0;" edge="1" parent="1">
          <mxGeometry width="50" height="50" relative="1" as="geometry">
            <mxPoint x="349.5" y="234.5" as="sourcePoint" />
            <mxPoint x="288.5" y="234.5" as="targetPoint" />
          </mxGeometry>
        </mxCell>
        <mxCell id="lGgN09VJ7r-bYCbF2dpQ-137" value="" style="endArrow=none;html=1;rounded=0;exitX=0.008;exitY=0.16;exitDx=0;exitDy=0;exitPerimeter=0;" edge="1" parent="1">
          <mxGeometry width="50" height="50" relative="1" as="geometry">
            <mxPoint x="349.5" y="264" as="sourcePoint" />
            <mxPoint x="288.5" y="264" as="targetPoint" />
          </mxGeometry>
        </mxCell>
        <mxCell id="lGgN09VJ7r-bYCbF2dpQ-138" value="" style="endArrow=none;html=1;rounded=0;exitX=0.008;exitY=0.16;exitDx=0;exitDy=0;exitPerimeter=0;" edge="1" parent="1">
          <mxGeometry width="50" height="50" relative="1" as="geometry">
            <mxPoint x="350.5" y="292" as="sourcePoint" />
            <mxPoint x="289.5" y="292" as="targetPoint" />
          </mxGeometry>
        </mxCell>
        <mxCell id="lGgN09VJ7r-bYCbF2dpQ-139" value="" style="endArrow=none;html=1;rounded=0;exitX=0.008;exitY=0.16;exitDx=0;exitDy=0;exitPerimeter=0;" edge="1" parent="1">
          <mxGeometry width="50" height="50" relative="1" as="geometry">
            <mxPoint x="521.5" y="228" as="sourcePoint" />
            <mxPoint x="460.5" y="228" as="targetPoint" />
          </mxGeometry>
        </mxCell>
        <mxCell id="lGgN09VJ7r-bYCbF2dpQ-140" value="" style="endArrow=none;html=1;rounded=0;exitX=0.008;exitY=0.16;exitDx=0;exitDy=0;exitPerimeter=0;" edge="1" parent="1">
          <mxGeometry width="50" height="50" relative="1" as="geometry">
            <mxPoint x="520.5" y="295" as="sourcePoint" />
            <mxPoint x="459.5" y="295" as="targetPoint" />
          </mxGeometry>
        </mxCell>
        <mxCell id="lGgN09VJ7r-bYCbF2dpQ-141" value="3.3v" style="text;html=1;strokeColor=none;fillColor=none;align=center;verticalAlign=middle;whiteSpace=wrap;rounded=0;" vertex="1" parent="1">
          <mxGeometry x="289.5" y="208" width="60" height="30" as="geometry" />
        </mxCell>
        <mxCell id="lGgN09VJ7r-bYCbF2dpQ-142" value="Gnd" style="text;html=1;strokeColor=none;fillColor=none;align=center;verticalAlign=middle;whiteSpace=wrap;rounded=0;" vertex="1" parent="1">
          <mxGeometry x="289.5" y="241" width="60" height="29" as="geometry" />
        </mxCell>
        <mxCell id="lGgN09VJ7r-bYCbF2dpQ-143" value="p27" style="text;html=1;strokeColor=none;fillColor=none;align=center;verticalAlign=middle;whiteSpace=wrap;rounded=0;" vertex="1" parent="1">
          <mxGeometry x="289.5" y="268" width="60" height="27" as="geometry" />
        </mxCell>
        <mxCell id="lGgN09VJ7r-bYCbF2dpQ-144" value="p28" style="text;html=1;strokeColor=none;fillColor=none;align=center;verticalAlign=middle;whiteSpace=wrap;rounded=0;" vertex="1" parent="1">
          <mxGeometry x="459.5" y="205" width="60" height="27" as="geometry" />
        </mxCell>
        <mxCell id="lGgN09VJ7r-bYCbF2dpQ-145" value="p20" style="text;html=1;strokeColor=none;fillColor=none;align=center;verticalAlign=middle;whiteSpace=wrap;rounded=0;" vertex="1" parent="1">
          <mxGeometry x="459.5" y="270" width="60" height="27" as="geometry" />
        </mxCell>
        <mxCell id="lGgN09VJ7r-bYCbF2dpQ-146" value="ToF Distance" style="text;html=1;strokeColor=none;fillColor=none;align=center;verticalAlign=middle;whiteSpace=wrap;rounded=0;" vertex="1" parent="1">
          <mxGeometry x="359.75" y="180" width="89.5" height="30" as="geometry" />
        </mxCell>
        <mxCell id="lGgN09VJ7r-bYCbF2dpQ-150" value="Red&lt;span style=&quot;white-space: pre;&quot;&gt;	&lt;span style=&quot;white-space: pre;&quot;&gt;	&lt;/span&gt;&lt;/span&gt;&lt;br&gt;&lt;br&gt;Black&lt;span style=&quot;white-space: pre;&quot;&gt;	       &lt;span style=&quot;white-space: pre;&quot;&gt;&lt;span style=&quot;white-space: pre;&quot;&gt;	      &lt;/span&gt;&lt;/span&gt;&lt;/span&gt;&lt;br&gt;&lt;br&gt;Yellow&lt;span style=&quot;white-space: pre;&quot;&gt;	  &lt;/span&gt;" style="rounded=0;whiteSpace=wrap;html=1;align=left;" vertex="1" parent="1">
          <mxGeometry x="354.5" y="351" width="110" height="100" as="geometry" />
        </mxCell>
        <mxCell id="lGgN09VJ7r-bYCbF2dpQ-151" value="" style="endArrow=none;html=1;rounded=0;exitX=0.008;exitY=0.16;exitDx=0;exitDy=0;exitPerimeter=0;" edge="1" parent="1">
          <mxGeometry width="50" height="50" relative="1" as="geometry">
            <mxPoint x="354.5" y="375.5" as="sourcePoint" />
            <mxPoint x="293.5" y="375.5" as="targetPoint" />
          </mxGeometry>
        </mxCell>
        <mxCell id="lGgN09VJ7r-bYCbF2dpQ-152" value="" style="endArrow=none;html=1;rounded=0;exitX=0.008;exitY=0.16;exitDx=0;exitDy=0;exitPerimeter=0;" edge="1" parent="1">
          <mxGeometry width="50" height="50" relative="1" as="geometry">
            <mxPoint x="354.5" y="405" as="sourcePoint" />
            <mxPoint x="293.5" y="405" as="targetPoint" />
          </mxGeometry>
        </mxCell>
        <mxCell id="lGgN09VJ7r-bYCbF2dpQ-153" value="" style="endArrow=none;html=1;rounded=0;exitX=0.008;exitY=0.16;exitDx=0;exitDy=0;exitPerimeter=0;" edge="1" parent="1">
          <mxGeometry width="50" height="50" relative="1" as="geometry">
            <mxPoint x="355.5" y="433" as="sourcePoint" />
            <mxPoint x="294.5" y="433" as="targetPoint" />
          </mxGeometry>
        </mxCell>
        <mxCell id="lGgN09VJ7r-bYCbF2dpQ-156" value="5V1" style="text;html=1;strokeColor=none;fillColor=none;align=center;verticalAlign=middle;whiteSpace=wrap;rounded=0;" vertex="1" parent="1">
          <mxGeometry x="294.5" y="349" width="60" height="30" as="geometry" />
        </mxCell>
        <mxCell id="lGgN09VJ7r-bYCbF2dpQ-157" value="Gnd" style="text;html=1;strokeColor=none;fillColor=none;align=center;verticalAlign=middle;whiteSpace=wrap;rounded=0;" vertex="1" parent="1">
          <mxGeometry x="294.5" y="382" width="60" height="29" as="geometry" />
        </mxCell>
        <mxCell id="lGgN09VJ7r-bYCbF2dpQ-158" value="p25" style="text;html=1;strokeColor=none;fillColor=none;align=center;verticalAlign=middle;whiteSpace=wrap;rounded=0;" vertex="1" parent="1">
          <mxGeometry x="294.5" y="409" width="60" height="27" as="geometry" />
        </mxCell>
        <mxCell id="lGgN09VJ7r-bYCbF2dpQ-161" value="Servo" style="text;html=1;strokeColor=none;fillColor=none;align=center;verticalAlign=middle;whiteSpace=wrap;rounded=0;" vertex="1" parent="1">
          <mxGeometry x="364.75" y="321" width="89.5" height="30" as="geometry" />
        </mxCell>
        <mxCell id="lGgN09VJ7r-bYCbF2dpQ-162" value="+&lt;span style=&quot;white-space: pre;&quot;&gt;	&lt;span style=&quot;white-space: pre;&quot;&gt;	-&lt;/span&gt;&lt;/span&gt;" style="rounded=0;whiteSpace=wrap;html=1;align=left;" vertex="1" parent="1">
          <mxGeometry x="264.25" y="493" width="70" height="60" as="geometry" />
        </mxCell>
        <mxCell id="lGgN09VJ7r-bYCbF2dpQ-165" value="" style="endArrow=none;html=1;rounded=0;entryX=0;entryY=0.5;entryDx=0;entryDy=0;" edge="1" parent="1" target="lGgN09VJ7r-bYCbF2dpQ-162">
          <mxGeometry width="50" height="50" relative="1" as="geometry">
            <mxPoint x="224.75" y="523" as="sourcePoint" />
            <mxPoint x="434.75" y="366" as="targetPoint" />
          </mxGeometry>
        </mxCell>
        <mxCell id="lGgN09VJ7r-bYCbF2dpQ-166" value="" style="endArrow=none;html=1;rounded=0;entryX=1;entryY=0.5;entryDx=0;entryDy=0;" edge="1" parent="1" target="lGgN09VJ7r-bYCbF2dpQ-162">
          <mxGeometry width="50" height="50" relative="1" as="geometry">
            <mxPoint x="384.75" y="523" as="sourcePoint" />
            <mxPoint x="274.75" y="533" as="targetPoint" />
          </mxGeometry>
        </mxCell>
        <mxCell id="lGgN09VJ7r-bYCbF2dpQ-167" value="5v1" style="text;html=1;strokeColor=none;fillColor=none;align=center;verticalAlign=middle;whiteSpace=wrap;rounded=0;" vertex="1" parent="1">
          <mxGeometry x="214.75" y="496" width="60" height="30" as="geometry" />
        </mxCell>
        <mxCell id="lGgN09VJ7r-bYCbF2dpQ-168" value="Gnd" style="text;html=1;strokeColor=none;fillColor=none;align=center;verticalAlign=middle;whiteSpace=wrap;rounded=0;" vertex="1" parent="1">
          <mxGeometry x="324.75" y="470" width="60" height="30" as="geometry" />
        </mxCell>
        <mxCell id="lGgN09VJ7r-bYCbF2dpQ-169" value="+&lt;span style=&quot;white-space: pre;&quot;&gt;	&lt;span style=&quot;white-space: pre;&quot;&gt;	-&lt;/span&gt;&lt;/span&gt;" style="rounded=0;whiteSpace=wrap;html=1;align=left;" vertex="1" parent="1">
          <mxGeometry x="474.5" y="490" width="70" height="60" as="geometry" />
        </mxCell>
        <mxCell id="lGgN09VJ7r-bYCbF2dpQ-170" value="" style="endArrow=none;html=1;rounded=0;entryX=0;entryY=0.5;entryDx=0;entryDy=0;" edge="1" parent="1" target="lGgN09VJ7r-bYCbF2dpQ-169">
          <mxGeometry width="50" height="50" relative="1" as="geometry">
            <mxPoint x="435" y="520" as="sourcePoint" />
            <mxPoint x="645" y="363" as="targetPoint" />
          </mxGeometry>
        </mxCell>
        <mxCell id="lGgN09VJ7r-bYCbF2dpQ-171" value="" style="endArrow=none;html=1;rounded=0;entryX=1;entryY=0.5;entryDx=0;entryDy=0;" edge="1" parent="1" target="lGgN09VJ7r-bYCbF2dpQ-169">
          <mxGeometry width="50" height="50" relative="1" as="geometry">
            <mxPoint x="595" y="520" as="sourcePoint" />
            <mxPoint x="485" y="530" as="targetPoint" />
          </mxGeometry>
        </mxCell>
        <mxCell id="lGgN09VJ7r-bYCbF2dpQ-172" value="5v2" style="text;html=1;strokeColor=none;fillColor=none;align=center;verticalAlign=middle;whiteSpace=wrap;rounded=0;" vertex="1" parent="1">
          <mxGeometry x="425" y="493" width="60" height="30" as="geometry" />
        </mxCell>
        <mxCell id="lGgN09VJ7r-bYCbF2dpQ-173" value="Gnd" style="text;html=1;strokeColor=none;fillColor=none;align=center;verticalAlign=middle;whiteSpace=wrap;rounded=0;" vertex="1" parent="1">
          <mxGeometry x="535" y="493" width="60" height="30" as="geometry" />
        </mxCell>
        <mxCell id="lGgN09VJ7r-bYCbF2dpQ-175" value="Battery" style="text;html=1;strokeColor=none;fillColor=none;align=center;verticalAlign=middle;whiteSpace=wrap;rounded=0;" vertex="1" parent="1">
          <mxGeometry x="264.75" y="466" width="60" height="30" as="geometry" />
        </mxCell>
        <mxCell id="lGgN09VJ7r-bYCbF2dpQ-176" value="Battery" style="text;html=1;strokeColor=none;fillColor=none;align=center;verticalAlign=middle;whiteSpace=wrap;rounded=0;" vertex="1" parent="1">
          <mxGeometry x="475" y="463" width="60" height="30" as="geometry" />
        </mxCell>
        <mxCell id="lGgN09VJ7r-bYCbF2dpQ-177" value="p5&lt;span style=&quot;white-space: pre;&quot;&gt;	&lt;span style=&quot;white-space: pre;&quot;&gt;	&lt;span style=&quot;white-space: pre;&quot;&gt;	    p28&lt;/span&gt;&lt;/span&gt;&lt;/span&gt;&lt;br&gt;&lt;br&gt;p6&lt;span style=&quot;white-space: pre;&quot;&gt;	&lt;span style=&quot;white-space: pre;&quot;&gt;	&lt;span style=&quot;white-space: pre;&quot;&gt;	    p27&lt;/span&gt;&lt;/span&gt;&lt;/span&gt;&lt;br&gt;&lt;br&gt;p7&lt;span style=&quot;white-space: pre;&quot;&gt;	&lt;span style=&quot;white-space: pre;&quot;&gt;	&lt;span style=&quot;white-space: pre;&quot;&gt;	    p25&lt;/span&gt;&lt;/span&gt;&lt;/span&gt;&lt;br&gt;&lt;br&gt;p8&lt;span style=&quot;white-space: pre;&quot;&gt;	&lt;span style=&quot;white-space: pre;&quot;&gt;	&lt;span style=&quot;white-space: pre;&quot;&gt;	    p24&lt;/span&gt;&lt;/span&gt;&lt;/span&gt;&lt;br&gt;&lt;br&gt;p9&lt;span style=&quot;white-space: pre;&quot;&gt;	&lt;span style=&quot;white-space: pre;&quot;&gt;	&lt;span style=&quot;white-space: pre;&quot;&gt;	    p23&lt;/span&gt;&lt;/span&gt;&lt;/span&gt;&lt;br&gt;&lt;br&gt;p10&lt;span style=&quot;white-space: pre;&quot;&gt;	&lt;span style=&quot;white-space: pre;&quot;&gt;	&lt;span style=&quot;white-space: pre;&quot;&gt;	    p22&lt;/span&gt;&lt;/span&gt;&lt;/span&gt;&lt;br&gt;&lt;br&gt;p11&lt;span style=&quot;white-space: pre;&quot;&gt;	&lt;span style=&quot;white-space: pre;&quot;&gt;	&lt;span style=&quot;white-space: pre;&quot;&gt;	    p21&lt;/span&gt;&lt;/span&gt;&lt;/span&gt;&lt;br&gt;&lt;br&gt;p12&lt;br&gt;&lt;br&gt;p13&lt;br&gt;&lt;br&gt;p14&lt;br&gt;&lt;br&gt;p15&lt;span style=&quot;white-space: pre;&quot;&gt;	&lt;span style=&quot;white-space: pre;&quot;&gt;	&lt;span style=&quot;white-space: pre;&quot;&gt;	    Gnd&lt;/span&gt;&lt;/span&gt;&lt;/span&gt;&lt;br&gt;&lt;br&gt;p20&lt;span style=&quot;white-space: pre;&quot;&gt;	&lt;span style=&quot;white-space: pre;&quot;&gt;	&lt;span style=&quot;white-space: pre;&quot;&gt;	    Vin&lt;/span&gt;&lt;/span&gt;&lt;/span&gt;" style="rounded=0;whiteSpace=wrap;html=1;align=left;" vertex="1" parent="1">
          <mxGeometry x="60" y="40" width="120" height="349" as="geometry" />
        </mxCell>
        <mxCell id="lGgN09VJ7r-bYCbF2dpQ-179" value="" style="endArrow=none;html=1;rounded=0;exitX=0.008;exitY=0.16;exitDx=0;exitDy=0;exitPerimeter=0;" edge="1" parent="1">
          <mxGeometry width="50" height="50" relative="1" as="geometry">
            <mxPoint x="241" y="63" as="sourcePoint" />
            <mxPoint x="180" y="63" as="targetPoint" />
          </mxGeometry>
        </mxCell>
        <mxCell id="lGgN09VJ7r-bYCbF2dpQ-180" value="" style="endArrow=none;html=1;rounded=0;exitX=0.008;exitY=0.16;exitDx=0;exitDy=0;exitPerimeter=0;" edge="1" parent="1">
          <mxGeometry width="50" height="50" relative="1" as="geometry">
            <mxPoint x="241" y="92" as="sourcePoint" />
            <mxPoint x="180" y="92" as="targetPoint" />
          </mxGeometry>
        </mxCell>
        <mxCell id="lGgN09VJ7r-bYCbF2dpQ-181" value="" style="endArrow=none;html=1;rounded=0;exitX=0.008;exitY=0.16;exitDx=0;exitDy=0;exitPerimeter=0;" edge="1" parent="1">
          <mxGeometry width="50" height="50" relative="1" as="geometry">
            <mxPoint x="241" y="118.5" as="sourcePoint" />
            <mxPoint x="180" y="118.5" as="targetPoint" />
          </mxGeometry>
        </mxCell>
        <mxCell id="lGgN09VJ7r-bYCbF2dpQ-182" value="" style="endArrow=none;html=1;rounded=0;exitX=0.008;exitY=0.16;exitDx=0;exitDy=0;exitPerimeter=0;" edge="1" parent="1">
          <mxGeometry width="50" height="50" relative="1" as="geometry">
            <mxPoint x="241" y="147.5" as="sourcePoint" />
            <mxPoint x="180" y="147.5" as="targetPoint" />
          </mxGeometry>
        </mxCell>
        <mxCell id="lGgN09VJ7r-bYCbF2dpQ-183" value="" style="endArrow=none;html=1;rounded=0;exitX=0.008;exitY=0.16;exitDx=0;exitDy=0;exitPerimeter=0;" edge="1" parent="1">
          <mxGeometry width="50" height="50" relative="1" as="geometry">
            <mxPoint x="241" y="173.5" as="sourcePoint" />
            <mxPoint x="180" y="173.5" as="targetPoint" />
          </mxGeometry>
        </mxCell>
        <mxCell id="lGgN09VJ7r-bYCbF2dpQ-184" value="" style="endArrow=none;html=1;rounded=0;exitX=0.008;exitY=0.16;exitDx=0;exitDy=0;exitPerimeter=0;" edge="1" parent="1">
          <mxGeometry width="50" height="50" relative="1" as="geometry">
            <mxPoint x="241" y="200" as="sourcePoint" />
            <mxPoint x="180" y="200" as="targetPoint" />
          </mxGeometry>
        </mxCell>
        <mxCell id="lGgN09VJ7r-bYCbF2dpQ-185" value="" style="endArrow=none;html=1;rounded=0;exitX=0.008;exitY=0.16;exitDx=0;exitDy=0;exitPerimeter=0;" edge="1" parent="1">
          <mxGeometry width="50" height="50" relative="1" as="geometry">
            <mxPoint x="241" y="229" as="sourcePoint" />
            <mxPoint x="180" y="229" as="targetPoint" />
          </mxGeometry>
        </mxCell>
        <mxCell id="lGgN09VJ7r-bYCbF2dpQ-186" value="" style="endArrow=none;html=1;rounded=0;exitX=0.008;exitY=0.16;exitDx=0;exitDy=0;exitPerimeter=0;" edge="1" parent="1">
          <mxGeometry width="50" height="50" relative="1" as="geometry">
            <mxPoint x="241" y="340" as="sourcePoint" />
            <mxPoint x="180" y="340" as="targetPoint" />
          </mxGeometry>
        </mxCell>
        <mxCell id="lGgN09VJ7r-bYCbF2dpQ-187" value="" style="endArrow=none;html=1;rounded=0;exitX=0.008;exitY=0.16;exitDx=0;exitDy=0;exitPerimeter=0;" edge="1" parent="1">
          <mxGeometry width="50" height="50" relative="1" as="geometry">
            <mxPoint x="241" y="369" as="sourcePoint" />
            <mxPoint x="180" y="369" as="targetPoint" />
          </mxGeometry>
        </mxCell>
        <mxCell id="lGgN09VJ7r-bYCbF2dpQ-188" value="" style="endArrow=none;html=1;rounded=0;exitX=0.008;exitY=0.16;exitDx=0;exitDy=0;exitPerimeter=0;" edge="1" parent="1">
          <mxGeometry width="50" height="50" relative="1" as="geometry">
            <mxPoint x="61" y="63" as="sourcePoint" />
            <mxPoint y="63" as="targetPoint" />
          </mxGeometry>
        </mxCell>
        <mxCell id="lGgN09VJ7r-bYCbF2dpQ-189" value="" style="endArrow=none;html=1;rounded=0;exitX=0.008;exitY=0.16;exitDx=0;exitDy=0;exitPerimeter=0;" edge="1" parent="1">
          <mxGeometry width="50" height="50" relative="1" as="geometry">
            <mxPoint x="61" y="92" as="sourcePoint" />
            <mxPoint y="92" as="targetPoint" />
          </mxGeometry>
        </mxCell>
        <mxCell id="lGgN09VJ7r-bYCbF2dpQ-190" value="" style="endArrow=none;html=1;rounded=0;exitX=0.008;exitY=0.16;exitDx=0;exitDy=0;exitPerimeter=0;" edge="1" parent="1">
          <mxGeometry width="50" height="50" relative="1" as="geometry">
            <mxPoint x="61" y="118.5" as="sourcePoint" />
            <mxPoint y="118.5" as="targetPoint" />
          </mxGeometry>
        </mxCell>
        <mxCell id="lGgN09VJ7r-bYCbF2dpQ-191" value="" style="endArrow=none;html=1;rounded=0;exitX=0.008;exitY=0.16;exitDx=0;exitDy=0;exitPerimeter=0;" edge="1" parent="1">
          <mxGeometry width="50" height="50" relative="1" as="geometry">
            <mxPoint x="61" y="147.5" as="sourcePoint" />
            <mxPoint y="147.5" as="targetPoint" />
          </mxGeometry>
        </mxCell>
        <mxCell id="lGgN09VJ7r-bYCbF2dpQ-192" value="" style="endArrow=none;html=1;rounded=0;exitX=0.008;exitY=0.16;exitDx=0;exitDy=0;exitPerimeter=0;" edge="1" parent="1">
          <mxGeometry width="50" height="50" relative="1" as="geometry">
            <mxPoint x="61" y="173.5" as="sourcePoint" />
            <mxPoint y="173.5" as="targetPoint" />
          </mxGeometry>
        </mxCell>
        <mxCell id="lGgN09VJ7r-bYCbF2dpQ-193" value="" style="endArrow=none;html=1;rounded=0;exitX=0.008;exitY=0.16;exitDx=0;exitDy=0;exitPerimeter=0;" edge="1" parent="1">
          <mxGeometry width="50" height="50" relative="1" as="geometry">
            <mxPoint x="61" y="200" as="sourcePoint" />
            <mxPoint y="200" as="targetPoint" />
          </mxGeometry>
        </mxCell>
        <mxCell id="lGgN09VJ7r-bYCbF2dpQ-194" value="" style="endArrow=none;html=1;rounded=0;exitX=0.008;exitY=0.16;exitDx=0;exitDy=0;exitPerimeter=0;" edge="1" parent="1">
          <mxGeometry width="50" height="50" relative="1" as="geometry">
            <mxPoint x="61" y="229" as="sourcePoint" />
            <mxPoint y="229" as="targetPoint" />
          </mxGeometry>
        </mxCell>
        <mxCell id="lGgN09VJ7r-bYCbF2dpQ-195" value="" style="endArrow=none;html=1;rounded=0;exitX=0.008;exitY=0.16;exitDx=0;exitDy=0;exitPerimeter=0;" edge="1" parent="1">
          <mxGeometry width="50" height="50" relative="1" as="geometry">
            <mxPoint x="61" y="255.5" as="sourcePoint" />
            <mxPoint y="255.5" as="targetPoint" />
          </mxGeometry>
        </mxCell>
        <mxCell id="lGgN09VJ7r-bYCbF2dpQ-196" value="" style="endArrow=none;html=1;rounded=0;exitX=0.008;exitY=0.16;exitDx=0;exitDy=0;exitPerimeter=0;" edge="1" parent="1">
          <mxGeometry width="50" height="50" relative="1" as="geometry">
            <mxPoint x="61" y="284.5" as="sourcePoint" />
            <mxPoint y="284.5" as="targetPoint" />
          </mxGeometry>
        </mxCell>
        <mxCell id="lGgN09VJ7r-bYCbF2dpQ-197" value="" style="endArrow=none;html=1;rounded=0;exitX=0.008;exitY=0.16;exitDx=0;exitDy=0;exitPerimeter=0;" edge="1" parent="1">
          <mxGeometry width="50" height="50" relative="1" as="geometry">
            <mxPoint x="61" y="311" as="sourcePoint" />
            <mxPoint y="311" as="targetPoint" />
          </mxGeometry>
        </mxCell>
        <mxCell id="lGgN09VJ7r-bYCbF2dpQ-198" value="" style="endArrow=none;html=1;rounded=0;exitX=0.008;exitY=0.16;exitDx=0;exitDy=0;exitPerimeter=0;" edge="1" parent="1">
          <mxGeometry width="50" height="50" relative="1" as="geometry">
            <mxPoint x="61" y="340" as="sourcePoint" />
            <mxPoint y="340" as="targetPoint" />
          </mxGeometry>
        </mxCell>
        <mxCell id="lGgN09VJ7r-bYCbF2dpQ-199" value="" style="endArrow=none;html=1;rounded=0;exitX=0.008;exitY=0.16;exitDx=0;exitDy=0;exitPerimeter=0;" edge="1" parent="1">
          <mxGeometry width="50" height="50" relative="1" as="geometry">
            <mxPoint x="61" y="366" as="sourcePoint" />
            <mxPoint y="366" as="targetPoint" />
          </mxGeometry>
        </mxCell>
        <mxCell id="lGgN09VJ7r-bYCbF2dpQ-200" value="p5" style="text;html=1;strokeColor=none;fillColor=none;align=center;verticalAlign=middle;whiteSpace=wrap;rounded=0;" vertex="1" parent="1">
          <mxGeometry y="37" width="60" height="30" as="geometry" />
        </mxCell>
        <mxCell id="lGgN09VJ7r-bYCbF2dpQ-201" value="p6" style="text;html=1;strokeColor=none;fillColor=none;align=center;verticalAlign=middle;whiteSpace=wrap;rounded=0;" vertex="1" parent="1">
          <mxGeometry y="67" width="60" height="30" as="geometry" />
        </mxCell>
        <mxCell id="lGgN09VJ7r-bYCbF2dpQ-202" value="p7" style="text;html=1;strokeColor=none;fillColor=none;align=center;verticalAlign=middle;whiteSpace=wrap;rounded=0;" vertex="1" parent="1">
          <mxGeometry y="95" width="60" height="30" as="geometry" />
        </mxCell>
        <mxCell id="lGgN09VJ7r-bYCbF2dpQ-203" value="p8" style="text;html=1;strokeColor=none;fillColor=none;align=center;verticalAlign=middle;whiteSpace=wrap;rounded=0;" vertex="1" parent="1">
          <mxGeometry y="124" width="60" height="30" as="geometry" />
        </mxCell>
        <mxCell id="lGgN09VJ7r-bYCbF2dpQ-204" value="p9" style="text;html=1;strokeColor=none;fillColor=none;align=center;verticalAlign=middle;whiteSpace=wrap;rounded=0;" vertex="1" parent="1">
          <mxGeometry y="150" width="60" height="30" as="geometry" />
        </mxCell>
        <mxCell id="lGgN09VJ7r-bYCbF2dpQ-205" value="p10" style="text;html=1;strokeColor=none;fillColor=none;align=center;verticalAlign=middle;whiteSpace=wrap;rounded=0;" vertex="1" parent="1">
          <mxGeometry y="176" width="60" height="30" as="geometry" />
        </mxCell>
        <mxCell id="lGgN09VJ7r-bYCbF2dpQ-206" value="p11" style="text;html=1;strokeColor=none;fillColor=none;align=center;verticalAlign=middle;whiteSpace=wrap;rounded=0;" vertex="1" parent="1">
          <mxGeometry y="206" width="60" height="30" as="geometry" />
        </mxCell>
        <mxCell id="lGgN09VJ7r-bYCbF2dpQ-207" value="p12" style="text;html=1;strokeColor=none;fillColor=none;align=center;verticalAlign=middle;whiteSpace=wrap;rounded=0;" vertex="1" parent="1">
          <mxGeometry y="232" width="60" height="30" as="geometry" />
        </mxCell>
        <mxCell id="lGgN09VJ7r-bYCbF2dpQ-208" value="p13" style="text;html=1;strokeColor=none;fillColor=none;align=center;verticalAlign=middle;whiteSpace=wrap;rounded=0;" vertex="1" parent="1">
          <mxGeometry y="262" width="60" height="30" as="geometry" />
        </mxCell>
        <mxCell id="lGgN09VJ7r-bYCbF2dpQ-209" value="p14" style="text;html=1;strokeColor=none;fillColor=none;align=center;verticalAlign=middle;whiteSpace=wrap;rounded=0;" vertex="1" parent="1">
          <mxGeometry y="286" width="60" height="30" as="geometry" />
        </mxCell>
        <mxCell id="lGgN09VJ7r-bYCbF2dpQ-210" value="p15" style="text;html=1;strokeColor=none;fillColor=none;align=center;verticalAlign=middle;whiteSpace=wrap;rounded=0;" vertex="1" parent="1">
          <mxGeometry y="317" width="60" height="30" as="geometry" />
        </mxCell>
        <mxCell id="lGgN09VJ7r-bYCbF2dpQ-211" value="p20" style="text;html=1;strokeColor=none;fillColor=none;align=center;verticalAlign=middle;whiteSpace=wrap;rounded=0;" vertex="1" parent="1">
          <mxGeometry y="342" width="60" height="30" as="geometry" />
        </mxCell>
        <mxCell id="lGgN09VJ7r-bYCbF2dpQ-212" value="p28" style="text;html=1;strokeColor=none;fillColor=none;align=center;verticalAlign=middle;whiteSpace=wrap;rounded=0;" vertex="1" parent="1">
          <mxGeometry x="180" y="36" width="60" height="30" as="geometry" />
        </mxCell>
        <mxCell id="lGgN09VJ7r-bYCbF2dpQ-213" value="p27" style="text;html=1;strokeColor=none;fillColor=none;align=center;verticalAlign=middle;whiteSpace=wrap;rounded=0;" vertex="1" parent="1">
          <mxGeometry x="180" y="66" width="60" height="30" as="geometry" />
        </mxCell>
        <mxCell id="lGgN09VJ7r-bYCbF2dpQ-214" value="p25" style="text;html=1;strokeColor=none;fillColor=none;align=center;verticalAlign=middle;whiteSpace=wrap;rounded=0;" vertex="1" parent="1">
          <mxGeometry x="180" y="94" width="60" height="30" as="geometry" />
        </mxCell>
        <mxCell id="lGgN09VJ7r-bYCbF2dpQ-215" value="p24" style="text;html=1;strokeColor=none;fillColor=none;align=center;verticalAlign=middle;whiteSpace=wrap;rounded=0;" vertex="1" parent="1">
          <mxGeometry x="180" y="123" width="60" height="30" as="geometry" />
        </mxCell>
        <mxCell id="lGgN09VJ7r-bYCbF2dpQ-216" value="p23" style="text;html=1;strokeColor=none;fillColor=none;align=center;verticalAlign=middle;whiteSpace=wrap;rounded=0;" vertex="1" parent="1">
          <mxGeometry x="180" y="149" width="60" height="30" as="geometry" />
        </mxCell>
        <mxCell id="lGgN09VJ7r-bYCbF2dpQ-217" value="p22" style="text;html=1;strokeColor=none;fillColor=none;align=center;verticalAlign=middle;whiteSpace=wrap;rounded=0;" vertex="1" parent="1">
          <mxGeometry x="180" y="175" width="60" height="30" as="geometry" />
        </mxCell>
        <mxCell id="lGgN09VJ7r-bYCbF2dpQ-218" value="p21" style="text;html=1;strokeColor=none;fillColor=none;align=center;verticalAlign=middle;whiteSpace=wrap;rounded=0;" vertex="1" parent="1">
          <mxGeometry x="180" y="205" width="60" height="30" as="geometry" />
        </mxCell>
        <mxCell id="lGgN09VJ7r-bYCbF2dpQ-219" value="Gnd" style="text;html=1;strokeColor=none;fillColor=none;align=center;verticalAlign=middle;whiteSpace=wrap;rounded=0;" vertex="1" parent="1">
          <mxGeometry x="180" y="312" width="60" height="30" as="geometry" />
        </mxCell>
        <mxCell id="lGgN09VJ7r-bYCbF2dpQ-220" value="p21" style="text;html=1;strokeColor=none;fillColor=none;align=center;verticalAlign=middle;whiteSpace=wrap;rounded=0;" vertex="1" parent="1">
          <mxGeometry x="180" y="342" width="60" height="30" as="geometry" />
        </mxCell>
        <mxCell id="lGgN09VJ7r-bYCbF2dpQ-221" value="Anode &amp;nbsp; &amp;nbsp;&amp;nbsp;&lt;span style=&quot;white-space: pre;&quot;&gt;&lt;span style=&quot;white-space: pre;&quot;&gt;Cathode&lt;/span&gt;&lt;/span&gt;" style="rounded=0;whiteSpace=wrap;html=1;align=left;" vertex="1" parent="1">
          <mxGeometry x="60" y="485" width="100" height="60" as="geometry" />
        </mxCell>
        <mxCell id="lGgN09VJ7r-bYCbF2dpQ-222" value="" style="endArrow=none;html=1;rounded=0;exitX=1;exitY=0.5;exitDx=0;exitDy=0;" edge="1" parent="1" source="lGgN09VJ7r-bYCbF2dpQ-221">
          <mxGeometry width="50" height="50" relative="1" as="geometry">
            <mxPoint x="394.75" y="533" as="sourcePoint" />
            <mxPoint x="210" y="515" as="targetPoint" />
          </mxGeometry>
        </mxCell>
        <mxCell id="lGgN09VJ7r-bYCbF2dpQ-223" value="" style="endArrow=none;html=1;rounded=0;exitX=0;exitY=0.5;exitDx=0;exitDy=0;" edge="1" parent="1" source="lGgN09VJ7r-bYCbF2dpQ-221">
          <mxGeometry width="50" height="50" relative="1" as="geometry">
            <mxPoint x="170" y="525" as="sourcePoint" />
            <mxPoint x="10" y="515" as="targetPoint" />
            <Array as="points">
              <mxPoint x="50" y="500" />
              <mxPoint x="40" y="520" />
              <mxPoint x="30" y="500" />
              <mxPoint x="20" y="520" />
            </Array>
          </mxGeometry>
        </mxCell>
        <mxCell id="lGgN09VJ7r-bYCbF2dpQ-224" value="330Ω" style="text;html=1;strokeColor=none;fillColor=none;align=center;verticalAlign=middle;whiteSpace=wrap;rounded=0;" vertex="1" parent="1">
          <mxGeometry y="470" width="60" height="30" as="geometry" />
        </mxCell>
        <mxCell id="lGgN09VJ7r-bYCbF2dpQ-225" value="Led" style="text;html=1;strokeColor=none;fillColor=none;align=center;verticalAlign=middle;whiteSpace=wrap;rounded=0;" vertex="1" parent="1">
          <mxGeometry x="80" y="460" width="60" height="30" as="geometry" />
        </mxCell>
        <mxCell id="lGgN09VJ7r-bYCbF2dpQ-226" value="Black&lt;span style=&quot;white-space: pre;&quot;&gt;	Red&lt;/span&gt;" style="whiteSpace=wrap;html=1;aspect=fixed;align=left;" vertex="1" parent="1">
          <mxGeometry x="70" y="590" width="80" height="80" as="geometry" />
        </mxCell>
        <mxCell id="lGgN09VJ7r-bYCbF2dpQ-227" value="Motor" style="text;html=1;strokeColor=none;fillColor=none;align=center;verticalAlign=middle;whiteSpace=wrap;rounded=0;" vertex="1" parent="1">
          <mxGeometry x="80" y="560" width="60" height="30" as="geometry" />
        </mxCell>
        <mxCell id="lGgN09VJ7r-bYCbF2dpQ-229" value="" style="endArrow=none;html=1;rounded=0;exitX=1;exitY=0.5;exitDx=0;exitDy=0;" edge="1" parent="1" source="lGgN09VJ7r-bYCbF2dpQ-226">
          <mxGeometry width="50" height="50" relative="1" as="geometry">
            <mxPoint x="170" y="525" as="sourcePoint" />
            <mxPoint x="210" y="630" as="targetPoint" />
          </mxGeometry>
        </mxCell>
        <mxCell id="lGgN09VJ7r-bYCbF2dpQ-230" value="" style="endArrow=none;html=1;rounded=0;exitX=0;exitY=0.5;exitDx=0;exitDy=0;" edge="1" parent="1" source="lGgN09VJ7r-bYCbF2dpQ-226">
          <mxGeometry width="50" height="50" relative="1" as="geometry">
            <mxPoint x="160" y="640" as="sourcePoint" />
            <mxPoint x="20" y="630" as="targetPoint" />
          </mxGeometry>
        </mxCell>
        <mxCell id="lGgN09VJ7r-bYCbF2dpQ-231" value="m1N" style="text;html=1;strokeColor=none;fillColor=none;align=center;verticalAlign=middle;whiteSpace=wrap;rounded=0;" vertex="1" parent="1">
          <mxGeometry x="20" y="600" width="60" height="30" as="geometry" />
        </mxCell>
        <mxCell id="lGgN09VJ7r-bYCbF2dpQ-232" value="m1P" style="text;html=1;strokeColor=none;fillColor=none;align=center;verticalAlign=middle;whiteSpace=wrap;rounded=0;" vertex="1" parent="1">
          <mxGeometry x="150" y="600" width="60" height="30" as="geometry" />
        </mxCell>
        <mxCell id="lGgN09VJ7r-bYCbF2dpQ-233" value="Black&lt;span style=&quot;white-space: pre;&quot;&gt;	Red&lt;/span&gt;" style="whiteSpace=wrap;html=1;aspect=fixed;align=left;" vertex="1" parent="1">
          <mxGeometry x="264.75" y="590" width="80" height="80" as="geometry" />
        </mxCell>
        <mxCell id="lGgN09VJ7r-bYCbF2dpQ-234" value="Motor" style="text;html=1;strokeColor=none;fillColor=none;align=center;verticalAlign=middle;whiteSpace=wrap;rounded=0;" vertex="1" parent="1">
          <mxGeometry x="274.75" y="560" width="60" height="30" as="geometry" />
        </mxCell>
        <mxCell id="lGgN09VJ7r-bYCbF2dpQ-235" value="" style="endArrow=none;html=1;rounded=0;exitX=1;exitY=0.5;exitDx=0;exitDy=0;" edge="1" parent="1" source="lGgN09VJ7r-bYCbF2dpQ-233">
          <mxGeometry width="50" height="50" relative="1" as="geometry">
            <mxPoint x="364.75" y="525" as="sourcePoint" />
            <mxPoint x="404.75" y="630" as="targetPoint" />
          </mxGeometry>
        </mxCell>
        <mxCell id="lGgN09VJ7r-bYCbF2dpQ-236" value="" style="endArrow=none;html=1;rounded=0;exitX=0;exitY=0.5;exitDx=0;exitDy=0;" edge="1" parent="1" source="lGgN09VJ7r-bYCbF2dpQ-233">
          <mxGeometry width="50" height="50" relative="1" as="geometry">
            <mxPoint x="354.75" y="640" as="sourcePoint" />
            <mxPoint x="214.75" y="630" as="targetPoint" />
          </mxGeometry>
        </mxCell>
        <mxCell id="lGgN09VJ7r-bYCbF2dpQ-237" value="m2N" style="text;html=1;strokeColor=none;fillColor=none;align=center;verticalAlign=middle;whiteSpace=wrap;rounded=0;" vertex="1" parent="1">
          <mxGeometry x="214.75" y="600" width="60" height="30" as="geometry" />
        </mxCell>
        <mxCell id="lGgN09VJ7r-bYCbF2dpQ-238" value="m2P" style="text;html=1;strokeColor=none;fillColor=none;align=center;verticalAlign=middle;whiteSpace=wrap;rounded=0;" vertex="1" parent="1">
          <mxGeometry x="344.75" y="600" width="60" height="30" as="geometry" />
        </mxCell>
        <mxCell id="lGgN09VJ7r-bYCbF2dpQ-239" value="Black&lt;span style=&quot;white-space: pre;&quot;&gt;	Red&lt;/span&gt;" style="whiteSpace=wrap;html=1;aspect=fixed;align=left;" vertex="1" parent="1">
          <mxGeometry x="475" y="590" width="80" height="80" as="geometry" />
        </mxCell>
        <mxCell id="lGgN09VJ7r-bYCbF2dpQ-240" value="Motor" style="text;html=1;strokeColor=none;fillColor=none;align=center;verticalAlign=middle;whiteSpace=wrap;rounded=0;" vertex="1" parent="1">
          <mxGeometry x="485" y="560" width="60" height="30" as="geometry" />
        </mxCell>
        <mxCell id="lGgN09VJ7r-bYCbF2dpQ-241" value="" style="endArrow=none;html=1;rounded=0;exitX=1;exitY=0.5;exitDx=0;exitDy=0;" edge="1" parent="1" source="lGgN09VJ7r-bYCbF2dpQ-239">
          <mxGeometry width="50" height="50" relative="1" as="geometry">
            <mxPoint x="575" y="525" as="sourcePoint" />
            <mxPoint x="615" y="630" as="targetPoint" />
          </mxGeometry>
        </mxCell>
        <mxCell id="lGgN09VJ7r-bYCbF2dpQ-242" value="" style="endArrow=none;html=1;rounded=0;exitX=0;exitY=0.5;exitDx=0;exitDy=0;" edge="1" parent="1" source="lGgN09VJ7r-bYCbF2dpQ-239">
          <mxGeometry width="50" height="50" relative="1" as="geometry">
            <mxPoint x="565" y="640" as="sourcePoint" />
            <mxPoint x="425" y="630" as="targetPoint" />
          </mxGeometry>
        </mxCell>
        <mxCell id="lGgN09VJ7r-bYCbF2dpQ-243" value="m3N" style="text;html=1;strokeColor=none;fillColor=none;align=center;verticalAlign=middle;whiteSpace=wrap;rounded=0;" vertex="1" parent="1">
          <mxGeometry x="425" y="600" width="60" height="30" as="geometry" />
        </mxCell>
        <mxCell id="lGgN09VJ7r-bYCbF2dpQ-244" value="m3P" style="text;html=1;strokeColor=none;fillColor=none;align=center;verticalAlign=middle;whiteSpace=wrap;rounded=0;" vertex="1" parent="1">
          <mxGeometry x="555" y="600" width="60" height="30" as="geometry" />
        </mxCell>
        <mxCell id="lGgN09VJ7r-bYCbF2dpQ-245" value="Black&lt;span style=&quot;white-space: pre;&quot;&gt;	Red&lt;/span&gt;" style="whiteSpace=wrap;html=1;aspect=fixed;align=left;" vertex="1" parent="1">
          <mxGeometry x="675" y="590" width="80" height="80" as="geometry" />
        </mxCell>
        <mxCell id="lGgN09VJ7r-bYCbF2dpQ-246" value="Motor" style="text;html=1;strokeColor=none;fillColor=none;align=center;verticalAlign=middle;whiteSpace=wrap;rounded=0;" vertex="1" parent="1">
          <mxGeometry x="685" y="560" width="60" height="30" as="geometry" />
        </mxCell>
        <mxCell id="lGgN09VJ7r-bYCbF2dpQ-247" value="" style="endArrow=none;html=1;rounded=0;exitX=1;exitY=0.5;exitDx=0;exitDy=0;" edge="1" parent="1" source="lGgN09VJ7r-bYCbF2dpQ-245">
          <mxGeometry width="50" height="50" relative="1" as="geometry">
            <mxPoint x="775" y="525" as="sourcePoint" />
            <mxPoint x="815" y="630" as="targetPoint" />
          </mxGeometry>
        </mxCell>
        <mxCell id="lGgN09VJ7r-bYCbF2dpQ-248" value="" style="endArrow=none;html=1;rounded=0;exitX=0;exitY=0.5;exitDx=0;exitDy=0;" edge="1" parent="1" source="lGgN09VJ7r-bYCbF2dpQ-245">
          <mxGeometry width="50" height="50" relative="1" as="geometry">
            <mxPoint x="765" y="640" as="sourcePoint" />
            <mxPoint x="625" y="630" as="targetPoint" />
          </mxGeometry>
        </mxCell>
        <mxCell id="lGgN09VJ7r-bYCbF2dpQ-249" value="m4N" style="text;html=1;strokeColor=none;fillColor=none;align=center;verticalAlign=middle;whiteSpace=wrap;rounded=0;" vertex="1" parent="1">
          <mxGeometry x="625" y="600" width="60" height="30" as="geometry" />
        </mxCell>
        <mxCell id="lGgN09VJ7r-bYCbF2dpQ-250" value="m4P" style="text;html=1;strokeColor=none;fillColor=none;align=center;verticalAlign=middle;whiteSpace=wrap;rounded=0;" vertex="1" parent="1">
          <mxGeometry x="755" y="600" width="60" height="30" as="geometry" />
        </mxCell>
      </root>
    </mxGraphModel>
  </diagram>
</mxfile>
